<svg width="32" height="32" viewBox="0 0 32 32" fill="none" xmlns="http://www.w3.org/2000/svg">
<path d="M29.4469 15.2L29.4438 15.1969L29.4406 15.1938C28.3031 12.7969 26.9406 10.8594 25.3563 9.3813L23.7719 10.9688C25.1375 12.225 26.3188 13.8969 27.3375 15.9969C24.7344 21.3813 21.0438 23.9375 16 23.9375C14.3969 23.9375 12.9281 23.6782 11.5875 23.1532L9.87814 24.8625C11.7063 25.7438 13.7438 26.1875 16 26.1875C22.0063 26.1875 26.4813 23.0469 29.4438 16.8032C29.6844 16.2969 29.6844 15.7094 29.4469 15.2ZM27.4469 4.8188L26.1219 3.4938C26.025 3.39692 25.8656 3.39692 25.7688 3.4938L22.1188 7.14067C20.2938 6.2563 18.2563 5.81255 16 5.81255C9.99376 5.81255 5.51876 8.95317 2.55626 15.1969V15.2C2.31564 15.7063 2.31564 16.3 2.55626 16.8094C3.69376 19.2063 5.05626 21.1438 6.64064 22.625L3.49376 25.7657C3.39689 25.8625 3.39689 26.0219 3.49376 26.1188L4.81876 27.4438C4.91564 27.5407 5.07501 27.5407 5.17189 27.4438L27.4469 5.1688C27.5438 5.07505 27.5438 4.91567 27.4469 4.8188ZM12.4656 16.7938C12.4063 16.5375 12.375 16.2719 12.375 16C12.375 14.0657 13.9406 12.5 15.875 12.5C16.1469 12.5 16.4156 12.5313 16.6688 12.5907L12.4656 16.7938ZM18.2313 11.0282C17.5156 10.6907 16.7188 10.5 15.875 10.5C12.8375 10.5 10.375 12.9625 10.375 16C10.375 16.8438 10.5656 17.6407 10.9031 18.3563L8.22814 21.0313C6.86251 19.775 5.68126 18.1032 4.66251 16.0032C7.26876 10.6188 10.9594 8.06255 16 8.06255C17.6031 8.06255 19.0719 8.32192 20.4125 8.84692L18.2313 11.0282Z" fill="#FF9999"/>
<path d="M15.875 19.5C15.675 19.5 15.4781 19.4844 15.2875 19.45L13.6906 21.0469C14.3594 21.3375 15.1 21.4969 15.875 21.4969C18.9125 21.4969 21.375 19.0344 21.375 15.9969C21.375 15.2219 21.2156 14.4812 20.925 13.8125L19.3281 15.4094C19.3594 15.6 19.3781 15.7969 19.3781 15.9969C19.375 17.9344 17.8094 19.5 15.875 19.5Z" fill="#FF9999"/>
</svg>
