<svg width="32" height="32" viewBox="0 0 32 32" fill="none" xmlns="http://www.w3.org/2000/svg">
<path d="M3.71903 2.28101L2.28003 3.72001L28.28 29.72L29.718 28.282L21.155 19.72C21.382 19.43 21.625 19.152 21.905 18.907C23.805 17.207 24.999 14.695 24.999 12.095C24.999 6.79501 20.399 2.48901 14.999 3.18901C12.386 3.50501 10.059 5.05301 8.59303 7.15701L3.71903 2.28101ZM15.969 5.06201C19.825 5.02901 23 8.15601 23 12.095C23 14.095 22.094 16.007 20.594 17.407C20.285 17.677 20.017 17.99 19.75 18.314L9.96903 8.53001C11.066 6.66601 12.974 5.32201 15.188 5.09301C15.45 5.06101 15.712 5.06301 15.968 5.06101L15.969 5.06201ZM7.09403 11C6.79403 14 7.88703 16.913 10.187 18.813C11.287 19.813 12 21.188 12 22.688V28H14.281C14.628 28.597 15.263 29 16 29C16.737 29 17.372 28.597 17.719 28H20V24L18 22H14C13.8 20.2 12.9 18.512 11.5 17.312C10.2 16.212 9.39403 14.7 9.09403 13L7.09403 11ZM14 24H18V26H14V24Z" fill="#FF9999"/>
</svg>
