<svg width="158" height="32" viewBox="0 0 158 32" fill="none" xmlns="http://www.w3.org/2000/svg">
<g clip-path="url(#clip0_128_42)">
<path d="M6.77249 26.2398C6.77249 21.5998 6.77249 16.9566 6.77249 12.2782C7.44129 12.2782 8.06529 12.2782 8.72769 12.2782C8.74689 12.387 8.77569 12.4926 8.77569 12.6014C8.78209 16.995 8.78849 21.3886 8.79169 25.7854C8.79169 25.939 8.75969 26.0894 8.74369 26.2398C8.08449 26.2398 7.42849 26.2398 6.77249 26.2398ZM31.9981 25.315C31.6013 25.315 31.2013 25.315 30.7565 25.315C30.7565 19.0526 30.7565 12.8638 30.7565 6.56937C31.1693 6.56937 31.5821 6.56937 31.9981 6.56937C31.9981 12.819 31.9981 19.0654 31.9981 25.315ZM3.64609 26.2398C3.64609 21.619 3.64609 16.995 3.64609 12.3294C4.14849 12.3294 4.61569 12.3294 5.15009 12.3294C5.15009 16.995 5.15009 21.619 5.15009 26.2398C4.65089 26.2398 4.14849 26.2398 3.64609 26.2398ZM10.3597 26.2398C10.3597 21.603 10.3597 16.9662 10.3597 12.2814C10.8077 12.2814 11.2365 12.2814 11.7485 12.2814C11.7485 16.9374 11.7485 21.587 11.7485 26.2398C11.2877 26.2398 10.8237 26.2398 10.3597 26.2398ZM0.638088 12.1214C0.766088 12.0894 0.897288 12.0542 1.02529 12.035C1.47329 11.9678 1.65889 12.1086 1.65889 12.6206C1.64609 17.0238 1.66209 21.4302 1.66529 25.8366C1.66529 25.971 1.67169 26.1054 1.67809 26.2398C1.33249 26.2398 0.983688 26.2398 0.634888 26.2398C0.638088 21.5358 0.638088 16.8286 0.638088 12.1214ZM9.55009 5.75977C9.69409 5.80457 9.83489 5.84937 10.0077 5.90377C10.0077 7.64137 10.0077 9.38216 10.0077 11.1614C9.80289 11.1614 9.62049 11.1614 9.36129 11.1614C9.36129 10.1982 9.35489 9.24136 9.36449 8.28137C9.37729 7.43977 9.40609 6.59817 9.43169 5.75977C9.47329 5.75977 9.50849 5.75977 9.55009 5.75977ZM27.0253 25.2894C26.6317 25.2894 26.2285 25.3246 25.8381 25.267C25.7197 25.251 25.5533 24.9886 25.5533 24.8382C25.5405 21.5838 25.5469 18.3262 25.5501 15.0718C25.5533 12.5086 25.5597 9.94857 25.5629 7.38537C25.5629 7.13897 25.5629 6.89257 25.5629 6.60457C26.0621 6.60457 26.5101 6.60457 27.0285 6.60457C27.0253 12.7902 27.0253 18.9822 27.0253 25.2894ZM22.5709 6.58217C23.0893 6.58217 23.5085 6.58217 23.9789 6.58217C23.9789 12.7998 23.9789 19.0078 23.9789 25.2094C23.9501 25.2318 23.9373 25.251 23.9245 25.251C22.5453 25.4558 22.5453 25.4558 22.5485 24.0798C22.5549 18.4926 22.5645 12.9054 22.5709 7.31817C22.5709 7.09097 22.5709 6.86057 22.5709 6.58217ZM13.9725 12.2654C14.6765 12.2654 15.3261 12.2654 16.0237 12.2654C16.0237 16.6078 16.0237 20.931 16.0237 25.2862C15.3453 25.2862 14.6797 25.2862 13.9725 25.2862C13.9725 20.9566 13.9725 16.6334 13.9725 12.2654ZM20.8525 25.219C20.7949 25.2478 20.7629 25.2734 20.7277 25.2766C19.6429 25.3758 19.6429 25.3758 19.6429 24.3006C19.6525 20.467 19.6621 16.6366 19.6749 12.7998C19.6749 12.6302 19.6941 12.4574 19.7069 12.2654C20.0909 12.2654 20.4525 12.2654 20.8557 12.2654C20.8525 16.579 20.8525 20.883 20.8525 25.219ZM28.4909 6.57897C28.7821 6.57897 28.9901 6.57897 29.2685 6.57897C29.2813 6.79337 29.3037 6.99497 29.3037 7.19977C29.3069 13.0014 29.3101 18.803 29.3165 24.6014C29.3165 25.3438 29.2813 25.3662 28.4941 25.2158C28.4909 19.0302 28.4909 12.835 28.4909 6.57897ZM18.1901 25.2798C17.8573 25.2798 17.5597 25.2798 17.2301 25.2798C17.2301 20.9438 17.2301 16.6366 17.2301 12.2846C17.5533 12.2846 17.8509 12.2846 18.1901 12.2846C18.1901 16.5982 18.1901 20.9182 18.1901 25.2798ZM1.94049 10.9438C1.64289 11.0654 1.42209 11.155 1.15009 11.267C1.15009 9.40457 1.15009 7.65737 1.15009 5.89097C1.37089 5.89097 1.55329 5.89097 1.79969 5.89097C1.79969 6.46697 1.79969 7.03017 1.79969 7.68937C2.43969 7.12937 3.07329 6.99497 3.71649 7.40457C4.42689 7.85897 4.60609 8.59177 4.51009 9.37577C4.45569 9.78217 4.33729 10.2142 4.12929 10.5662C3.62049 11.4302 2.64449 11.5454 1.94049 10.9438ZM1.75169 9.25417C1.77089 9.51017 1.77409 9.62216 1.79009 9.73737C1.86369 10.2814 2.25409 10.6846 2.74689 10.723C3.20449 10.7614 3.65569 10.4286 3.74529 9.87497C3.81249 9.43017 3.80929 8.95657 3.73889 8.51497C3.66849 8.08617 3.34529 7.83017 2.88129 7.80137C2.43009 7.77257 2.08129 7.95177 1.93409 8.38057C1.82529 8.70377 1.79329 9.04937 1.75169 9.25417ZM14.3757 9.46536C13.3709 9.46536 12.4717 9.46536 11.5565 9.46536C11.5725 10.0478 11.7069 10.499 12.2925 10.6718C12.8461 10.835 13.2397 10.6142 13.5949 10.1886C13.7229 10.0286 13.9981 9.99337 14.2925 9.86217C14.0717 10.8446 13.5629 11.2734 12.7309 11.3054C11.8509 11.3406 11.1085 10.9182 10.9645 10.1502C10.8589 9.59977 10.8621 8.99497 10.9773 8.45097C11.1533 7.62537 11.9245 7.13257 12.7469 7.18057C13.5533 7.22857 14.0845 7.71177 14.2669 8.58537C14.3213 8.84457 14.3341 9.10697 14.3757 9.46536ZM11.5469 8.89257C12.2765 8.89257 12.9549 8.89257 13.6365 8.89257C13.5469 8.14057 13.2941 7.85257 12.7181 7.80137C12.1357 7.75337 11.7485 8.10217 11.5469 8.89257ZM8.64129 9.26057C8.64449 10.5566 7.85729 11.395 6.70209 11.3086C6.51329 11.2958 6.32129 11.251 6.14849 11.1774C5.39969 10.867 4.95489 9.98057 5.04769 9.01736C5.14689 8.02857 5.66529 7.40457 6.54209 7.22537C7.71329 6.98857 8.63809 7.88457 8.64129 9.26057ZM7.98849 9.28617C7.92449 8.99177 7.89889 8.67817 7.78369 8.39977C7.57889 7.89417 7.03169 7.65737 6.54849 7.82057C6.04929 7.99017 5.74209 8.51177 5.73889 9.21897C5.73249 9.93577 6.01409 10.4638 6.50369 10.6462C7.29089 10.9278 7.93089 10.3326 7.98849 9.28617ZM17.0253 9.25417C17.0253 7.80137 18.0973 6.88937 19.3613 7.26697C20.2413 7.52937 20.7789 8.57896 20.5837 9.65737C20.3853 10.7838 19.6973 11.379 18.6701 11.3118C17.6813 11.2478 17.0285 10.4318 17.0253 9.25417ZM19.9661 9.27657C19.9181 9.02057 19.8925 8.80937 19.8317 8.60777C19.6781 8.09897 19.3517 7.75337 18.7981 7.76937C18.2477 7.78857 17.8701 8.12457 17.8029 8.65257C17.7453 9.11337 17.7357 9.64137 17.9085 10.051C18.0365 10.3486 18.4941 10.6558 18.8173 10.6718C19.1117 10.691 19.4925 10.3774 19.7197 10.1086C19.8957 9.89737 19.8957 9.53257 19.9661 9.27657ZM15.3389 7.14537C15.3389 6.86057 15.3389 6.57577 15.3389 6.24617C15.5597 6.24617 15.7549 6.24617 15.9853 6.24617C16.0045 6.56937 16.0173 6.87017 16.0301 7.20617C16.2157 7.24457 16.3949 7.27657 16.5837 7.31497C16.5837 7.48137 16.5837 7.62537 16.5837 7.79817C16.3981 7.82697 16.2349 7.84617 16.0653 7.87177C16.0461 7.93577 16.0173 7.99017 16.0173 8.04137C16.0109 8.61417 15.9949 9.19337 16.0141 9.76936C16.0269 10.131 15.8189 10.6366 16.5037 10.659C16.5517 10.6622 16.5933 10.9438 16.6317 11.0974C15.6493 11.3662 15.3389 11.1294 15.3325 10.1694C15.3293 9.42056 15.3325 8.67497 15.3325 8.05737C15.1117 7.83977 14.8749 7.71177 14.8621 7.56457C14.8525 7.43657 15.0861 7.28297 15.2141 7.14217C15.2589 7.13897 15.2973 7.14217 15.3389 7.14537Z" fill="white"/>
</g>
<path d="M72.5032 27.2773V12.3666C72.5032 9.62298 74.7273 7.39893 77.4708 7.39893L81.8733 7.40556C84.6088 7.41099 86.8236 9.63016 86.8236 12.3658V15.5396C86.8236 18.2832 84.5995 20.5073 81.856 20.5073H75.635" stroke="#939598" stroke-width="2" stroke-miterlimit="10" stroke-linecap="round" stroke-linejoin="round"/>
<path d="M88.0539 7.39697H89.9636C91.0895 7.39697 92.0022 8.30969 92.0022 9.43566V20.574" stroke="#939598" stroke-width="2" stroke-miterlimit="10" stroke-linecap="round" stroke-linejoin="round"/>
<path d="M91.5927 5.67131L90.7267 4.80517C90.5117 4.5903 90.5117 4.24186 90.7267 4.02699L91.5921 3.1614C91.8075 2.9462 92.1563 2.9462 92.3714 3.1614L93.2369 4.02699C93.4519 4.24186 93.4519 4.5903 93.2369 4.80517L92.3709 5.67131C92.156 5.88618 91.8077 5.88618 91.5927 5.67131Z" fill="#32BCAD"/>
<path d="M95.6659 7.38721H97.5598C98.5341 7.38721 99.4685 7.77429 100.157 8.4631L104.587 12.8929C105.161 13.4668 106.091 13.4668 106.665 12.8929L111.079 8.47932C111.768 7.7905 112.702 7.40343 113.676 7.40343H115.216" stroke="#939598" stroke-width="2" stroke-miterlimit="10" stroke-linecap="round" stroke-linejoin="round"/>
<path d="M95.6659 20.4767H97.5598C98.5341 20.4767 99.4685 20.0896 100.157 19.4008L104.587 14.9709C105.161 14.3971 106.091 14.3971 106.665 14.9709L111.079 19.3845C111.768 20.0734 112.702 20.4604 113.676 20.4604H115.216" stroke="#939598" stroke-width="2" stroke-miterlimit="10" stroke-linecap="round" stroke-linejoin="round"/>
<path d="M61.212 23.3064C60.2615 23.3064 59.3675 22.9363 58.6954 22.2644L55.0616 18.6305C54.8064 18.3747 54.3618 18.3755 54.1067 18.6305L50.4596 22.2777C49.7875 22.9495 48.8935 23.3196 47.943 23.3196H47.2269L51.8292 27.9219C53.2665 29.3592 55.5969 29.3592 57.0343 27.9219L61.6497 23.3064H61.212Z" fill="#32BCAD"/>
<path d="M47.943 10.4531C48.8935 10.4531 49.7875 10.8232 50.4596 11.495L54.1067 15.1428C54.3694 15.4055 54.7982 15.4065 55.0615 15.1425L58.6953 11.5083C59.3675 10.8365 60.2615 10.4664 61.212 10.4664H61.6497L57.0344 5.85099C55.5969 4.4136 53.2665 4.4136 51.8292 5.85099L47.2271 10.4531L47.943 10.4531Z" fill="#32BCAD"/>
<path d="M65.4673 14.2841L62.6782 11.495C62.6168 11.5196 62.5503 11.5349 62.4801 11.5349H61.212C60.5564 11.5349 59.9146 11.8009 59.4513 12.2645L55.8176 15.8983C55.4776 16.2383 55.0308 16.4085 54.5844 16.4085C54.1375 16.4085 53.691 16.2383 53.3511 15.8986L49.7037 12.2512C49.2404 11.7875 48.5986 11.5217 47.943 11.5217H46.3837C46.3172 11.5217 46.255 11.506 46.1964 11.4839L43.3962 14.2841C41.9588 15.7215 41.9588 18.0518 43.3962 19.4892L46.1962 22.2893C46.255 22.2672 46.3172 22.2515 46.3837 22.2515H47.943C48.5986 22.2515 49.2404 21.9857 49.7037 21.5221L53.3507 17.875C54.0099 17.2164 55.1591 17.2161 55.8176 17.8753L59.4513 21.5088C59.9146 21.9724 60.5564 22.2383 61.212 22.2383H62.4801C62.5503 22.2383 62.6168 22.2537 62.6782 22.2783L65.4673 19.4892C66.9046 18.0518 66.9046 15.7215 65.4673 14.2841Z" fill="#32BCAD"/>
<path d="M76.2891 26.0096C76.0833 26.0096 75.8437 26.0592 75.6067 26.1138V27.0224C75.7709 27.0824 75.9583 27.1112 76.138 27.1112C76.5937 27.1112 76.8097 26.9575 76.8097 26.5562C76.8097 26.1789 76.6327 26.0096 76.2891 26.0096ZM75.453 27.6971V25.9001H75.5781L75.5911 25.9784C75.802 25.9289 76.0936 25.8638 76.3019 25.8638C76.4714 25.8638 76.6327 25.8896 76.768 25.9991C76.9245 26.1269 76.9739 26.3324 76.9739 26.5562C76.9739 26.791 76.8956 27.0122 76.6821 27.1344C76.5338 27.2178 76.3333 27.2516 76.1536 27.2516C75.9686 27.2516 75.7916 27.2229 75.6067 27.1684V27.6971H75.453Z" fill="#939598"/>
<path d="M78.118 26.0043C77.6622 26.0043 77.4591 26.1477 77.4591 26.5487C77.4591 26.9366 77.6596 27.1112 78.118 27.1112C78.571 27.1112 78.7741 26.9705 78.7741 26.5695C78.7741 26.1815 78.5737 26.0043 78.118 26.0043ZM78.7038 27.1112C78.5527 27.2204 78.3497 27.2517 78.118 27.2517C77.881 27.2517 77.6778 27.2179 77.5294 27.1112C77.3627 26.9941 77.2949 26.8012 77.2949 26.5592C77.2949 26.3194 77.3627 26.1244 77.5294 26.0043C77.6778 25.8977 77.881 25.8638 78.118 25.8638C78.3522 25.8638 78.5527 25.8977 78.7038 26.0043C78.8732 26.1244 78.9382 26.3194 78.9382 26.5563C78.9382 26.7987 78.8705 26.9941 78.7038 27.1112Z" fill="#939598"/>
<path d="M80.861 27.2155L80.3532 26.1246H80.3426L79.8428 27.2155H79.7047L79.1631 25.9004H79.3324L79.7829 27.0045H79.7934L80.2827 25.9004H80.4234L80.9261 27.0045H80.9365L81.3766 25.9004H81.5405L80.999 27.2155H80.861Z" fill="#939598"/>
<path d="M82.5228 26.0017C82.101 26.0017 81.9577 26.1891 81.9316 26.4602H83.114C83.101 26.1607 82.9472 26.0017 82.5228 26.0017ZM82.5177 27.2516C82.2649 27.2516 82.101 27.2153 81.9708 27.1058C81.8171 26.973 81.765 26.7804 81.765 26.5591C81.765 26.3482 81.8354 26.1243 82.0099 25.9966C82.1556 25.8951 82.3353 25.8638 82.5228 25.8638C82.6922 25.8638 82.8874 25.8819 83.0487 25.9915C83.2389 26.1189 83.2755 26.343 83.2755 26.5981H81.9265C81.9316 26.8688 82.0202 27.1086 82.5305 27.1086C82.7728 27.1086 82.9993 27.0694 83.2103 27.0329V27.1709C82.9915 27.2102 82.7493 27.2516 82.5177 27.2516Z" fill="#939598"/>
<path d="M83.7164 27.2153V25.9001H83.8413L83.8545 25.9784C84.1331 25.9082 84.2633 25.8638 84.5081 25.8638H84.5263V26.0096H84.4898C84.2842 26.0096 84.1592 26.0381 83.8702 26.1138V27.2153H83.7164Z" fill="#939598"/>
<path d="M85.4187 26.0017C84.9969 26.0017 84.8537 26.1891 84.8276 26.4602H86.0099C85.9969 26.1607 85.8431 26.0017 85.4187 26.0017ZM85.4136 27.2516C85.1608 27.2516 84.9969 27.2153 84.8667 27.1058C84.7129 26.973 84.6609 26.7804 84.6609 26.5591C84.6609 26.3482 84.7313 26.1243 84.9058 25.9966C85.0516 25.8951 85.2313 25.8638 85.4187 25.8638C85.5881 25.8638 85.7834 25.8819 85.9447 25.9915C86.1348 26.1189 86.1714 26.343 86.1714 26.5981H84.8224C84.8276 26.8688 84.9161 27.1086 85.4264 27.1086C85.6686 27.1086 85.8952 27.0694 86.1062 27.0329V27.1709C85.8874 27.2102 85.6452 27.2516 85.4136 27.2516Z" fill="#939598"/>
<path d="M87.8544 26.0931C87.6904 26.0331 87.5029 26.0044 87.3232 26.0044C86.8676 26.0044 86.6513 26.1583 86.6513 26.5592C86.6513 26.9392 86.8284 27.1058 87.172 27.1058C87.3779 27.1058 87.6175 27.0563 87.8544 27.0043V26.0931ZM87.8831 27.2153L87.8701 27.1371C87.6591 27.1866 87.3674 27.2518 87.1591 27.2518C86.99 27.2518 86.8284 27.2284 86.693 27.1164C86.5368 26.9887 86.4872 26.783 86.4872 26.5592C86.4872 26.3248 86.5654 26.1033 86.7788 25.9836C86.9273 25.8977 87.1278 25.8638 87.3102 25.8638C87.4925 25.8638 87.6696 25.8952 87.8544 25.9472V25.3457H88.0081V27.2153H87.8831Z" fill="#939598"/>
<path d="M90.2609 26.0098C90.0551 26.0098 89.8155 26.0593 89.5785 26.114V27.0201C89.7453 27.0825 89.9301 27.1114 90.1098 27.1114C90.5655 27.1114 90.7815 26.9577 90.7815 26.5564C90.7815 26.1791 90.6045 26.0098 90.2609 26.0098ZM90.6541 27.1346C90.5056 27.218 90.3051 27.2518 90.1254 27.2518C89.9301 27.2518 89.7348 27.218 89.5369 27.1529L89.5291 27.2155H89.4248V25.3457H89.5785V25.9731C89.7895 25.9265 90.0732 25.8639 90.2737 25.8639C90.4432 25.8639 90.6045 25.8897 90.7398 25.9993C90.8963 26.127 90.9457 26.3326 90.9457 26.5564C90.9457 26.7911 90.8674 27.0123 90.6541 27.1346Z" fill="#939598"/>
<path d="M91.1497 27.7206V27.5776C91.2251 27.5852 91.2956 27.5906 91.3451 27.5906C91.5352 27.5906 91.6496 27.5358 91.7564 27.3196L91.8059 27.2155L91.1185 25.9004H91.2956L91.8842 27.0357H91.8945L92.4544 25.9004H92.6289L91.8893 27.3771C91.7539 27.6453 91.608 27.7337 91.3398 27.7337C91.2799 27.7337 91.2149 27.7286 91.1497 27.7206Z" fill="#939598"/>
<path d="M94.7463 26.4654H94.236V26.9265H94.7488C95.1004 26.9265 95.2333 26.8872 95.2333 26.6946C95.2333 26.4887 95.0511 26.4654 94.7463 26.4654ZM94.6527 25.718H94.236V26.1866H94.6552C95.0016 26.1866 95.1395 26.1452 95.1395 25.9498C95.1395 25.7417 94.9651 25.718 94.6527 25.718ZM95.4443 27.0905C95.2566 27.2103 95.0301 27.2154 94.6161 27.2154H93.8375V25.4316H94.598C94.9547 25.4316 95.1733 25.4368 95.3557 25.5463C95.486 25.6244 95.5379 25.7442 95.5379 25.9004C95.5379 26.0877 95.4599 26.2129 95.2566 26.2962V26.3065C95.486 26.3589 95.6343 26.476 95.6343 26.7285C95.6343 26.9003 95.5719 27.0123 95.4443 27.0905Z" fill="#939598"/>
<path d="M97.1923 26.6633C97.0385 26.6501 96.8824 26.6425 96.7183 26.6425C96.4501 26.6425 96.3562 26.6971 96.3562 26.8194C96.3562 26.934 96.4344 26.9966 96.6401 26.9966C96.8119 26.9966 97.0177 26.9576 97.1923 26.9183V26.6633ZM97.2703 27.2153L97.2599 27.1371C97.0358 27.192 96.7756 27.2517 96.5463 27.2517C96.4056 27.2517 96.2547 27.2335 96.1478 27.1553C96.0491 27.0851 96.0021 26.9705 96.0021 26.8377C96.0021 26.6891 96.0673 26.5512 96.2234 26.481C96.3614 26.4159 96.5463 26.4108 96.7157 26.4108C96.8536 26.4108 97.0384 26.4184 97.1922 26.4289V26.4053C97.1922 26.1997 97.0567 26.132 96.687 26.132C96.5437 26.132 96.3692 26.1396 96.2026 26.1553V25.8897C96.3874 25.8744 96.5959 25.8638 96.7677 25.8638C96.9968 25.8638 97.2339 25.8821 97.3797 25.9861C97.5306 26.093 97.5594 26.2415 97.5594 26.4365V27.2153L97.2703 27.2153Z" fill="#939598"/>
<path d="M99.2763 27.2153V26.4886C99.2763 26.2492 99.1541 26.1632 98.9352 26.1632C98.7739 26.1632 98.5708 26.2048 98.3988 26.2466V27.2153H98.0316V25.9001H98.3311L98.3441 25.9835C98.5758 25.9237 98.8337 25.8638 99.0473 25.8638C99.2086 25.8638 99.3728 25.8871 99.4977 25.9992C99.6018 26.093 99.641 26.223 99.641 26.4106V27.2153H99.2763Z" fill="#939598"/>
<path d="M100.678 27.2516C100.509 27.2516 100.324 27.2283 100.189 27.1137C100.027 26.9834 99.9803 26.7778 99.9803 26.5562C99.9803 26.3481 100.048 26.1214 100.249 25.994C100.413 25.8871 100.616 25.8638 100.827 25.8638C100.978 25.8638 101.126 25.8742 101.29 25.8896V26.1708C101.157 26.1581 100.998 26.1475 100.871 26.1475C100.522 26.1475 100.358 26.257 100.358 26.5591C100.358 26.843 100.48 26.9652 100.767 26.9652C100.933 26.9652 101.129 26.934 101.319 26.8975V27.1682C101.113 27.2102 100.889 27.2516 100.678 27.2516Z" fill="#939598"/>
<path d="M102.403 26.1396C102.054 26.1396 101.901 26.2491 101.901 26.5486C101.901 26.8481 102.052 26.9758 102.403 26.9758C102.75 26.9758 102.901 26.8688 102.901 26.5693C102.901 26.2699 102.752 26.1396 102.403 26.1396ZM103.033 27.1137C102.872 27.2229 102.661 27.2516 102.403 27.2516C102.14 27.2516 101.929 27.2204 101.771 27.1137C101.588 26.994 101.523 26.7961 101.523 26.5591C101.523 26.3219 101.588 26.1214 101.771 26.0017C101.929 25.895 102.14 25.8638 102.403 25.8638C102.664 25.8638 102.872 25.895 103.033 26.0017C103.216 26.1214 103.278 26.3219 103.278 26.5563C103.278 26.7935 103.213 26.994 103.033 27.1137Z" fill="#939598"/>
<path d="M105.398 27.2521C105.177 27.2521 104.938 27.2157 104.758 27.0673C104.544 26.89 104.479 26.6167 104.479 26.3223C104.479 26.0595 104.562 25.747 104.841 25.5648C105.057 25.4242 105.325 25.3955 105.596 25.3955C105.794 25.3955 105.997 25.4086 106.219 25.4267V25.747C106.029 25.7313 105.794 25.7183 105.612 25.7183C105.104 25.7183 104.888 25.9111 104.888 26.3223C104.888 26.7419 105.088 26.9293 105.464 26.9293C105.708 26.9293 105.982 26.8798 106.258 26.8223V27.14C105.982 27.1949 105.693 27.2521 105.398 27.2521Z" fill="#939598"/>
<path d="M107.337 26.0981C107.032 26.0981 106.915 26.2076 106.891 26.4081H107.777C107.766 26.1946 107.641 26.0981 107.337 26.0981ZM107.282 27.2517C107.066 27.2517 106.87 27.2258 106.725 27.1058C106.568 26.9758 106.514 26.7804 106.514 26.5563C106.514 26.3558 106.579 26.132 106.761 26.0017C106.922 25.8872 107.128 25.8638 107.337 25.8638C107.524 25.8638 107.745 25.8846 107.907 25.9966C108.118 26.145 108.136 26.3743 108.139 26.645H106.889C106.896 26.8456 107.003 26.9758 107.373 26.9758C107.602 26.9758 107.857 26.9419 108.074 26.9081V27.1659C107.821 27.2077 107.545 27.2517 107.282 27.2517Z" fill="#939598"/>
<path d="M109.772 27.2153V26.4886C109.772 26.2492 109.65 26.1632 109.431 26.1632C109.27 26.1632 109.067 26.2048 108.895 26.2466V27.2153H108.527V25.9001H108.827L108.84 25.9835C109.072 25.9237 109.33 25.8638 109.543 25.8638C109.704 25.8638 109.869 25.8871 109.994 25.9992C110.098 26.093 110.137 26.223 110.137 26.4106V27.2153H109.772Z" fill="#939598"/>
<path d="M111.182 27.252C111.005 27.252 110.843 27.2024 110.755 27.0645C110.69 26.9707 110.658 26.8433 110.658 26.6661V26.1738H110.393V25.9005H110.658L110.698 25.502H111.023V25.9005H111.541V26.1738H111.023V26.5958C111.023 26.6974 111.031 26.7832 111.059 26.8458C111.099 26.9343 111.184 26.9681 111.299 26.9681C111.385 26.9681 111.489 26.955 111.562 26.9423V27.205C111.442 27.2287 111.304 27.252 111.182 27.252Z" fill="#939598"/>
<path d="M111.9 27.2153V25.9001H112.199L112.212 25.9835C112.454 25.9158 112.634 25.8638 112.863 25.8638C112.874 25.8638 112.889 25.8638 112.91 25.8662V26.1789C112.868 26.1764 112.819 26.1764 112.782 26.1764C112.603 26.1764 112.467 26.1971 112.267 26.2441V27.2153L111.9 27.2153Z" fill="#939598"/>
<path d="M114.245 26.6633C114.091 26.6501 113.935 26.6425 113.771 26.6425C113.503 26.6425 113.409 26.6971 113.409 26.8194C113.409 26.934 113.487 26.9966 113.693 26.9966C113.865 26.9966 114.07 26.9576 114.245 26.9183V26.6633ZM114.323 27.2153L114.313 27.1371C114.089 27.192 113.828 27.2517 113.599 27.2517C113.458 27.2517 113.307 27.2335 113.2 27.1553C113.102 27.0851 113.055 26.9705 113.055 26.8377C113.055 26.6891 113.12 26.5512 113.276 26.481C113.414 26.4159 113.599 26.4108 113.768 26.4108C113.906 26.4108 114.091 26.4184 114.245 26.4289V26.4053C114.245 26.1997 114.109 26.132 113.74 26.132C113.596 26.132 113.422 26.1396 113.255 26.1553V25.8897C113.44 25.8744 113.648 25.8638 113.82 25.8638C114.049 25.8638 114.287 25.8821 114.432 25.9861C114.583 26.093 114.612 26.2415 114.612 26.4365V27.2153L114.323 27.2153Z" fill="#939598"/>
<path d="M115.084 25.3457H115.451V27.2153H115.084V25.3457Z" fill="#939598"/>
<path d="M153.432 24.6562H129.932C128.689 24.6562 127.682 23.6488 127.682 22.4062V9.59375C127.682 8.35125 128.689 7.34375 129.932 7.34375H153.432C154.674 7.34375 155.682 8.35125 155.682 9.59375V22.4062C155.682 23.6488 154.674 24.6562 153.432 24.6562Z" fill="#F7F9FB"/>
<path d="M134.846 16C134.846 17.1106 135.287 18.1757 136.072 18.961C136.858 19.7463 137.923 20.1875 139.033 20.1875C140.144 20.1875 141.209 19.7463 141.994 18.961C142.78 18.1757 143.221 17.1106 143.221 16C143.221 14.8894 142.78 13.8243 141.994 13.039C141.209 12.2537 140.144 11.8125 139.033 11.8125C137.923 11.8125 136.858 12.2537 136.072 13.039C135.287 13.8243 134.846 14.8894 134.846 16Z" fill="#EA001B"/>
<path d="M140.143 16C140.143 16.5499 140.251 17.0944 140.462 17.6025C140.672 18.1105 140.98 18.5722 141.369 18.961C141.758 19.3499 142.22 19.6583 142.728 19.8687C143.236 20.0792 143.78 20.1875 144.33 20.1875C144.88 20.1875 145.425 20.0792 145.933 19.8687C146.441 19.6583 146.902 19.3499 147.291 18.961C147.68 18.5722 147.989 18.1105 148.199 17.6025C148.41 17.0944 148.518 16.5499 148.518 16C148.518 15.4501 148.41 14.9056 148.199 14.3975C147.989 13.8895 147.68 13.4278 147.291 13.039C146.902 12.6501 146.441 12.3417 145.933 12.1313C145.425 11.9208 144.88 11.8125 144.33 11.8125C143.78 11.8125 143.236 11.9208 142.728 12.1313C142.22 12.3417 141.758 12.6501 141.369 13.039C140.98 13.4278 140.672 13.8895 140.462 14.3975C140.251 14.9056 140.143 15.4501 140.143 16Z" fill="#F79F1A"/>
<path d="M140.151 16.0076C140.151 17.311 140.746 18.4754 141.68 19.2432C142.625 18.4754 143.229 17.3042 143.229 15.992C143.229 14.6885 142.633 13.5242 141.699 12.7563C140.754 13.5242 140.151 14.6951 140.151 16.0076Z" fill="#FF5F01"/>
<path d="M148.169 18.0979H148.221V18.2339H148.244V18.0979H148.297V18.0776H148.169V18.0979ZM148.452 18.0776L148.398 18.2029H148.398L148.343 18.0776H148.315V18.2339H148.339V18.1223H148.34L148.388 18.2339H148.408L148.456 18.1223H148.457V18.2339H148.481V18.0776H148.452Z" fill="#F79F1A"/>
<path d="M137.027 21.1924C136.847 21.1377 136.674 21.1558 136.53 21.2955C136.512 21.3127 136.502 21.3374 136.475 21.3477C136.26 21.1205 136.03 21.0955 135.785 21.3024C135.767 21.2693 135.791 21.2327 135.761 21.1983C135.69 21.1955 135.614 21.1908 135.536 21.2018V22.3149H135.765C135.785 22.283 135.778 22.2574 135.778 22.233C135.779 22.0649 135.778 21.8964 135.778 21.7283C135.778 21.683 135.779 21.638 135.791 21.5939C135.826 21.4652 135.929 21.3924 136.068 21.3996C136.191 21.4058 136.268 21.4796 136.289 21.6146C136.294 21.6443 136.294 21.6746 136.295 21.7046C136.295 21.8852 136.295 22.0661 136.296 22.2468C136.296 22.2689 136.29 22.2924 136.315 22.3186C136.384 22.3146 136.46 22.3268 136.531 22.3133C136.549 22.2818 136.543 22.2561 136.543 22.2314C136.544 22.0608 136.544 21.8899 136.544 21.7193C136.544 21.6739 136.546 21.6289 136.559 21.5852C136.596 21.4624 136.703 21.3896 136.835 21.3993C136.961 21.4086 137.037 21.4808 137.057 21.6149C137.061 21.6446 137.061 21.6749 137.061 21.7049C137.062 21.8805 137.061 22.0564 137.062 22.2321C137.062 22.2589 137.054 22.2877 137.075 22.3133H137.302C137.307 22.3008 137.312 22.2939 137.312 22.2871C137.311 22.0461 137.317 21.8049 137.308 21.5643C137.3 21.3811 137.205 21.2464 137.027 21.1924ZM147.583 20.7508V21.3083C147.281 21.1114 147.011 21.1302 146.812 21.3533C146.625 21.5621 146.62 21.9246 146.801 22.1464C146.885 22.2496 146.994 22.3143 147.124 22.3374C147.293 22.3671 147.447 22.3346 147.579 22.1946C147.581 22.228 147.582 22.2446 147.583 22.2611C147.583 22.2783 147.581 22.2968 147.595 22.3105C147.673 22.3236 147.769 22.3208 147.823 22.3033V20.7439C147.74 20.7474 147.664 20.7364 147.583 20.7508ZM147.265 22.1139C147.071 22.1177 146.925 21.9683 146.923 21.7633C146.922 21.5505 147.061 21.3993 147.259 21.3983C147.453 21.3977 147.596 21.5474 147.598 21.753C147.599 21.9599 147.461 22.1102 147.265 22.1139ZM145.334 21.1996C145.305 21.2352 145.334 21.2721 145.304 21.3074C145.199 21.1949 145.067 21.1558 144.918 21.1686C144.766 21.1818 144.639 21.2471 144.541 21.3633C144.362 21.5736 144.36 21.928 144.537 22.1446C144.619 22.2452 144.724 22.3118 144.852 22.3355C145.023 22.3671 145.18 22.3386 145.305 22.2055C145.333 22.2433 145.303 22.2843 145.335 22.3139H145.562V21.198C145.479 21.1955 145.403 21.1905 145.334 21.1996ZM144.998 22.1139C144.798 22.1133 144.657 21.9633 144.66 21.7527C144.662 21.5427 144.808 21.3943 145.007 21.3983C145.196 21.4021 145.337 21.5568 145.335 21.7571C145.332 21.9658 145.192 22.1143 144.998 22.1139ZM138.45 21.2011C138.427 21.2383 138.451 21.2743 138.429 21.3027C138.164 21.1127 137.882 21.1261 137.684 21.3368C137.484 21.5496 137.469 21.9127 137.653 22.1405C137.738 22.2461 137.847 22.3152 137.981 22.3374C138.149 22.3652 138.304 22.3355 138.427 22.203C138.454 22.2414 138.42 22.2818 138.455 22.3136H138.679V21.1958C138.596 21.1986 138.519 21.1871 138.45 21.2011ZM138.114 22.1139C137.912 22.1105 137.775 21.9618 137.779 21.7499C137.783 21.5418 137.925 21.3958 138.121 21.3986C138.314 21.4014 138.457 21.5568 138.453 21.7602C138.448 21.9699 138.308 22.1174 138.114 22.1139ZM141.853 21.1833C141.638 21.1239 141.403 21.2011 141.273 21.3761C141.145 21.5496 141.127 21.7461 141.182 21.9493C141.242 22.1664 141.39 22.2933 141.608 22.3355C141.725 22.3583 141.843 22.3521 141.958 22.3161C142.044 22.2896 142.124 22.2527 142.189 22.1836C142.148 22.1233 142.111 22.0683 142.075 22.0139C141.708 22.1886 141.458 22.1305 141.418 21.8483H142.237C142.256 21.7696 142.25 21.7021 142.238 21.6358C142.198 21.4105 142.082 21.2468 141.853 21.1833ZM141.423 21.6477C141.433 21.4993 141.544 21.3933 141.693 21.3877C141.853 21.3818 141.96 21.4739 141.984 21.6477H141.423ZM139.756 21.7121C139.713 21.6889 139.669 21.6739 139.623 21.6618C139.533 21.6383 139.439 21.6343 139.348 21.6155C139.293 21.6039 139.231 21.5914 139.224 21.5168C139.22 21.4611 139.269 21.4127 139.348 21.3958C139.42 21.3802 139.492 21.3871 139.564 21.4008C139.64 21.4152 139.711 21.4455 139.787 21.4799C139.823 21.4124 139.856 21.3499 139.893 21.2786C139.645 21.1586 139.403 21.1164 139.153 21.2271C139.021 21.2852 138.959 21.398 138.965 21.5427C138.971 21.6799 139.053 21.7599 139.173 21.8118C139.269 21.8533 139.372 21.8589 139.473 21.8761C139.52 21.8843 139.568 21.8911 139.61 21.9155C139.676 21.9533 139.682 22.0205 139.625 22.0702C139.596 22.0955 139.561 22.1093 139.523 22.1155C139.448 22.128 139.373 22.128 139.298 22.1171C139.203 22.1033 139.118 22.0624 139.033 22.0121L138.924 22.1924C138.932 22.2036 138.933 22.2086 138.937 22.2118C138.943 22.2168 138.949 22.2205 138.955 22.2243C139.148 22.3455 139.359 22.3671 139.578 22.3299C139.671 22.3143 139.755 22.2764 139.824 22.2086C139.976 22.058 139.943 21.8152 139.756 21.7121ZM140.801 22.1011C140.635 22.1408 140.558 22.0786 140.558 21.908C140.557 21.7752 140.557 21.6421 140.558 21.5093C140.558 21.4824 140.55 21.4539 140.578 21.4196H140.95C140.961 21.3427 140.958 21.2761 140.951 21.1933H140.556V20.8602H140.309V21.1858C140.232 21.2077 140.158 21.1824 140.083 21.2052C140.078 21.2755 140.074 21.3443 140.085 21.413C140.16 21.4321 140.234 21.4071 140.301 21.4299C140.314 21.4614 140.309 21.4896 140.309 21.5164C140.31 21.6696 140.308 21.8224 140.311 21.9755C140.313 22.1033 140.347 22.2199 140.464 22.2927C140.602 22.3786 140.867 22.3596 141.002 22.253C140.981 22.1874 140.965 22.118 140.93 22.0561C140.881 22.0733 140.842 22.0914 140.801 22.1011ZM143.613 21.9899C143.507 21.8699 143.503 21.6574 143.605 21.5336C143.772 21.3302 143.969 21.3852 144.168 21.4939C144.206 21.4305 144.243 21.3714 144.278 21.3133C144.162 21.1464 143.713 21.0946 143.471 21.308C143.233 21.5171 143.213 21.9339 143.435 22.1699C143.642 22.3893 144.087 22.4099 144.28 22.2033C144.244 22.1436 144.207 22.0821 144.168 22.0177C143.973 22.1268 143.78 22.1811 143.613 21.9899ZM142.753 21.3055C142.731 21.2664 142.756 21.2302 142.728 21.1993C142.657 21.1924 142.583 21.1936 142.503 21.1989V22.3139C142.585 22.3199 142.66 22.3211 142.743 22.3127V21.7205C142.743 21.6727 142.743 21.6252 142.755 21.5786C142.785 21.4608 142.861 21.4002 142.983 21.403C143.032 21.4043 143.081 21.4136 143.136 21.4202C143.16 21.3471 143.184 21.2749 143.21 21.1964C143.028 21.1421 142.875 21.1561 142.753 21.3055ZM146.139 21.3068C146.118 21.2664 146.139 21.2343 146.117 21.2008H145.893V22.3152C145.975 22.3171 146.051 22.3246 146.132 22.3099V21.7321C146.132 21.6793 146.132 21.6271 146.145 21.5752C146.174 21.4618 146.251 21.4021 146.368 21.4021C146.418 21.4021 146.467 21.4155 146.524 21.4233C146.549 21.3493 146.573 21.2774 146.6 21.1974C146.418 21.1418 146.263 21.1549 146.139 21.3068ZM148.404 22.2418C148.404 22.2186 148.379 22.2108 148.345 22.2108H148.292V22.3202H148.314V22.2743H148.344L148.384 22.3202H148.409L148.367 22.2727C148.389 22.2689 148.404 22.2589 148.404 22.2418ZM148.342 22.2627H148.314V22.2227H148.342C148.368 22.2227 148.382 22.2277 148.382 22.2418C148.382 22.2558 148.368 22.2627 148.342 22.2627Z" fill="black"/>
<path d="M148.351 22.1484C148.286 22.1484 148.233 22.2009 148.233 22.2656C148.233 22.3303 148.286 22.3828 148.351 22.3828C148.415 22.3828 148.468 22.3303 148.468 22.2656C148.468 22.2009 148.415 22.1484 148.351 22.1484ZM148.351 22.3672C148.295 22.3672 148.249 22.3216 148.249 22.2656C148.249 22.2097 148.295 22.1641 148.351 22.1641C148.407 22.1641 148.452 22.2097 148.452 22.2656C148.452 22.3216 148.407 22.3672 148.351 22.3672Z" fill="black"/>
<defs>
<clipPath id="clip0_128_42">
<rect width="32" height="32" fill="white" transform="translate(0.318115)"/>
</clipPath>
</defs>
</svg>
