<svg width="32" height="32" viewBox="0 0 32 32" fill="none" xmlns="http://www.w3.org/2000/svg">
<path d="M27.6844 15.3219C27.7969 14.9469 27.8531 14.5594 27.8531 14.1657C27.8531 13.2813 27.5625 12.4313 27.0375 11.7375C27.15 11.3625 27.2062 10.975 27.2062 10.5813C27.2062 9.69692 26.9156 8.84692 26.3906 8.15317C26.5031 7.77817 26.5594 7.39067 26.5594 6.99692C26.5594 5.38442 25.6 3.9313 24.1125 3.29692C23.8531 3.18442 23.575 3.12817 23.2844 3.12817H4.5C3.94687 3.12817 3.5 3.57505 3.5 4.12817V15.5032C3.5 16.0563 3.94687 16.5032 4.5 16.5032H8.54062L11.2219 26.2157C11.6531 27.7813 13.0906 28.875 14.7156 28.875C15.6438 28.875 16.5094 28.5063 17.15 27.8313C17.7906 27.1594 18.1187 26.2782 18.0719 25.35L17.8844 21.5094H25.3813C25.7594 21.5094 26.1281 21.4094 26.4531 21.2188C27.7156 20.4844 28.5 19.1532 28.5 17.75C28.5 16.8657 28.2094 16.0157 27.6844 15.3219ZM5.75 14.25V5.37505H8.28125V14.25H5.75ZM25.35 19.2626H15.525L15.825 25.4625C15.8438 25.8344 15.6781 26.1844 15.3687 26.4157C15.1781 26.5563 14.9438 26.6282 14.7094 26.625C14.0969 26.6219 13.5562 26.2063 13.3906 25.6157L10.2812 14.35V5.37505H23.2625C23.9 5.66255 24.3125 6.2938 24.3125 6.9938C24.3125 7.29692 24.2406 7.58442 24.0969 7.84692L23.6625 8.64067L24.3469 9.23442C24.7375 9.57192 24.9594 10.0625 24.9594 10.5782C24.9594 10.8813 24.8875 11.1688 24.7437 11.4313L24.3094 12.225L24.9937 12.8188C25.3844 13.1563 25.6063 13.6469 25.6063 14.1625C25.6063 14.4657 25.5344 14.7532 25.3906 15.0157L24.9531 15.8125L25.6375 16.4063C26.0281 16.7438 26.25 17.2344 26.25 17.75C26.25 18.3469 25.9062 18.9219 25.35 19.2626Z" fill="#FF9999"/>
</svg>
