<svg width="32" height="32" viewBox="0 0 32 32" fill="none" xmlns="http://www.w3.org/2000/svg">
<path d="M22.3333 18.6132C22.6666 18.7865 22.88 18.8798 22.9466 19.0132C23.0266 19.1598 23 19.8265 22.6666 20.5865C22.4 21.3332 21.0133 22.0532 20.4 22.0798C19.7866 22.1065 19.7733 22.5598 16.4533 21.1065C13.1333 19.6532 11.1333 16.1065 10.9733 15.8798C10.8133 15.6532 9.6933 14.0398 9.74663 12.3998C9.8133 10.7732 10.6666 9.99984 11.0133 9.67984C11.3333 9.33317 11.6933 9.29317 11.92 9.33317H12.5466C12.7466 9.33317 13.0266 9.25317 13.28 9.93317L14.2 12.4265C14.28 12.5998 14.3333 12.7998 14.2133 13.0132L13.8533 13.5598L13.3333 14.1198C13.1733 14.2798 12.9866 14.4532 13.1733 14.7865C13.3333 15.1332 14 16.2398 14.9333 17.1598C16.1466 18.3332 17.2133 18.7198 17.5333 18.8932C17.8533 19.0798 18.0533 19.0532 18.2533 18.8398L19.3333 17.5865C19.5866 17.2532 19.8 17.3332 20.1066 17.4398L22.3333 18.6132ZM16 2.6665C19.5362 2.6665 22.9276 4.07126 25.4281 6.57175C27.9285 9.07223 29.3333 12.4636 29.3333 15.9998C29.3333 17.7508 28.9884 19.4846 28.3184 21.1023C27.6483 22.72 26.6662 24.1898 25.4281 25.4279C24.1899 26.666 22.7201 27.6482 21.1024 28.3182C19.4847 28.9883 17.7509 29.3332 16 29.3332C13.3733 29.3332 10.9333 28.5732 8.86663 27.2665L2.66663 29.3332L4.7333 23.1332C3.38064 21.0001 2.66377 18.5257 2.66663 15.9998C2.66663 12.4636 4.07139 9.07223 6.57188 6.57175C9.07236 4.07126 12.4637 2.6665 16 2.6665ZM16 5.33317C13.171 5.33317 10.4579 6.45698 8.4575 8.45737C6.45711 10.4578 5.3333 13.1709 5.3333 15.9998C5.3333 18.2932 6.0533 20.4132 7.27997 22.1465L5.99997 25.9998L9.8533 24.7198C11.6504 25.9912 13.7986 26.6716 16 26.6665C18.8289 26.6665 21.5421 25.5427 23.5424 23.5423C25.5428 21.5419 26.6666 18.8288 26.6666 15.9998C26.6666 13.1709 25.5428 10.4578 23.5424 8.45737C21.5421 6.45698 18.8289 5.33317 16 5.33317Z" fill="#0B0B0B"/>
</svg>
